HIERARCHY
ROOT hip
{
  OFFSET 0 0 0
  CHANNELS 6 Xposition Yposition Zposition Zrotation Yrotation Xrotation
  JOINT abdomen
  {
    OFFSET 0 20.6881 -0.73152
    CHANNELS 3 Zrotation Xrotation Yrotation
    JOINT chest
    {
      OFFSET 0 11.7043 -0.48768
      CHANNELS 3 Zrotation Xrotation Yrotation
      JOINT neck
      {
        OFFSET 0 22.1894 -2.19456
        CHANNELS 3 Zrotation Xrotation Yrotation
        JOINT head
        {
          OFFSET -0.24384 7.07133 1.2192
          CHANNELS 3 Zrotation Xrotation Yrotation
          JOINT leftEye
          {
            OFFSET 4.14528 8.04674 8.04672
            CHANNELS 3 Zrotation Xrotation Yrotation
            End Site
            {
              OFFSET 1 0 0
            }
          }
          JOINT rightEye
          {
            OFFSET -3.6576 8.04674 8.04672
            CHANNELS 3 Zrotation Xrotation Yrotation
            End Site
            {
              OFFSET 1 0 0
            }
          }
        }
      }
      JOINT rCollar
      {
        OFFSET -2.68224 19.2634 -4.8768
        CHANNELS 3 Zrotation Xrotation Yrotation
        JOINT rShldr
        {
          OFFSET -8.77824 -1.95073 1.46304
          CHANNELS 3 Zrotation Xrotation Yrotation
          JOINT rForeArm
          {
            OFFSET -28.1742 -1.7115 0.48768
            CHANNELS 3 Zrotation Xrotation Yrotation
            JOINT rHand
            {
              OFFSET -22.5879 0.773209 7.07136
              CHANNELS 3 Zrotation Xrotation Yrotation
              JOINT rThumb1
              {
                OFFSET -1.2192 -0.487915 3.41376
                CHANNELS 3 Zrotation Xrotation Yrotation
                JOINT rThumb2
                {
                  OFFSET -3.37035 -0.52449 3.41376
                  CHANNELS 3 Zrotation Xrotation Yrotation
                  End Site
                  {
                    OFFSET -1.78271 -1.18214 1.43049
                  }
                }
              }
              JOINT rIndex1
              {
                OFFSET -7.75947 0.938293 5.60832
                CHANNELS 3 Zrotation Xrotation Yrotation
                JOINT rIndex2
                {
                  OFFSET -2.54057 -0.884171 1.56538
                  CHANNELS 3 Zrotation Xrotation Yrotation
                  End Site
                  {
                    OFFSET -1.62519 -0.234802 1.16502
                  }
                }
              }
              JOINT rMid1
              {
                OFFSET -8.24714 1.18213 3.41376
                CHANNELS 3 Zrotation Xrotation Yrotation
                JOINT rMid2
                {
                  OFFSET -3.10165 -0.590103 1.0647
                  CHANNELS 3 Zrotation Xrotation Yrotation
                  End Site
                  {
                    OFFSET -2.48547 -0.328903 0.83742
                  }
                }
              }
              JOINT rRing1
              {
                OFFSET -8.82822 0.546677 1.51678
                CHANNELS 3 Zrotation Xrotation Yrotation
                JOINT rRing2
                {
                  OFFSET -2.60934 -0.819778 -0.0198488
                  CHANNELS 3 Zrotation Xrotation Yrotation
                  End Site
                  {
                    OFFSET -2.33842 -0.294052 0.168128
                  }
                }
              }
              JOINT rPinky1
              {
                OFFSET -8.27202 -0.0477905 -0.4584
                CHANNELS 3 Zrotation Xrotation Yrotation
                JOINT rPinky2
                {
                  OFFSET -1.82734 -0.647385 -0.700984
                  CHANNELS 3 Zrotation Xrotation Yrotation
                  End Site
                  {
                    OFFSET -1.69225 -0.51767 -0.607171
                  }
                }
              }
            }
          }
        }
      }
      JOINT lCollar
      {
        OFFSET 2.68224 19.2634 -4.8768
        CHANNELS 3 Zrotation Xrotation Yrotation
        JOINT lShldr
        {
          OFFSET 8.77824 -1.95073 1.46304
          CHANNELS 3 Zrotation Xrotation Yrotation
          JOINT lForeArm
          {
            OFFSET 28.1742 -1.7115 0.48768
            CHANNELS 3 Zrotation Xrotation Yrotation
            JOINT lHand
            {
              OFFSET 22.5879 0.773209 7.07136
              CHANNELS 3 Zrotation Xrotation Yrotation
              JOINT lThumb1
              {
                OFFSET 1.2192 -0.487915 3.41376
                CHANNELS 3 Zrotation Xrotation Yrotation
                JOINT lThumb2
                {
                  OFFSET 3.37035 -0.52449 3.41376
                  CHANNELS 3 Zrotation Xrotation Yrotation
                  End Site
                  {
                    OFFSET 1.78271 -1.18214 1.43049
                  }
                }
              }
              JOINT lIndex1
              {
                OFFSET 7.75947 0.938293 5.60832
                CHANNELS 3 Zrotation Xrotation Yrotation
                JOINT lIndex2
                {
                  OFFSET 2.54057 -0.884171 1.56538
                  CHANNELS 3 Zrotation Xrotation Yrotation
                  End Site
                  {
                    OFFSET 1.62519 -0.234802 1.16502
                  }
                }
              }
              JOINT lMid1
              {
                OFFSET 8.24714 1.18213 3.41376
                CHANNELS 3 Zrotation Xrotation Yrotation
                JOINT lMid2
                {
                  OFFSET 3.10165 -0.590103 1.0647
                  CHANNELS 3 Zrotation Xrotation Yrotation
                  End Site
                  {
                    OFFSET 2.48547 -0.328903 0.83742
                  }
                }
              }
              JOINT lRing1
              {
                OFFSET 8.82822 0.546677 1.51678
                CHANNELS 3 Zrotation Xrotation Yrotation
                JOINT lRing2
                {
                  OFFSET 2.60934 -0.819778 -0.0198488
                  CHANNELS 3 Zrotation Xrotation Yrotation
                  End Site
                  {
                    OFFSET 2.33842 -0.294052 0.168128
                  }
                }
              }
              JOINT lPinky1
              {
                OFFSET 8.27202 -0.0477905 -0.4584
                CHANNELS 3 Zrotation Xrotation Yrotation
                JOINT lPinky2
                {
                  OFFSET 1.82734 -0.647385 -0.700984
                  CHANNELS 3 Zrotation Xrotation Yrotation
                  End Site
                  {
                    OFFSET 1.69225 -0.51767 -0.607171
                  }
                }
              }
            }
          }
        }
      }
    }
  }
  JOINT rButtock
  {
    OFFSET -8.77824 4.35084 1.2192
    CHANNELS 3 Zrotation Xrotation Yrotation
    JOINT rThigh
    {
      OFFSET 0 -1.70687 -2.19456
      CHANNELS 3 Zrotation Xrotation Yrotation
      JOINT rShin
      {
        OFFSET 0 -36.8199 0.73152
        CHANNELS 3 Zrotation Xrotation Yrotation
        JOINT rFoot
        {
          OFFSET 0.73152 -45.1104 -5.12064
          CHANNELS 3 Zrotation Xrotation Yrotation
          End Site
          {
            OFFSET -1.1221 -3.69964 12.103
          }
        }
      }
    }
  }
  JOINT lButtock
  {
    OFFSET 8.77824 4.35084 1.2192
    CHANNELS 3 Zrotation Xrotation Yrotation
    JOINT lThigh
    {
      OFFSET 0 -1.70687 -2.19456
      CHANNELS 3 Zrotation Xrotation Yrotation
      JOINT lShin
      {
        OFFSET 0 -36.8199 0.73152
        CHANNELS 3 Zrotation Xrotation Yrotation
        JOINT lFoot
        {
          OFFSET -0.73152 -45.1104 -5.12064
          CHANNELS 3 Zrotation Xrotation Yrotation
          End Site
          {
            OFFSET 1.1221 -3.69964 12.103
          }
        }
      }
    }
  }
}
MOTION
Frames:	4
Frame Time:	0.00833333
-3.74551 84.6589 9.94132 0.0 0.0 0.0 -0.555336 -0.00305886 -0.0158853 -0.153307 -0.00476083 -0.026563 5.78178e-15 7.95139e-16 -6.21201e-18 1.7257e-14 9.54166e-15 -5.43552e-17 -0.0 0.0 0.0 -0.0 0.0 0.0 3.07994e-15 3.88251e-19 1.49089e-16 6.28128e-14 -4.09993e-16 9.93923e-16 1.05147e-12 -3.13086e-13 0.0 1.20102e-11 3.19174e-13 -1.59028e-14 2.8332e-11 1.81872e-14 -2.8625e-14 4.89281e-11 3.49861e-14 -5.24792e-14 2.83372e-11 1.86858e-14 -3.49861e-14 7.73091 5.47488 0.417314 2.83325e-11 1.78906e-14 -2.54444e-14 2.90554 0.965183 0.102902 2.83413e-11 1.8487e-14 -3.02153e-14 10.2786 0.731801 0.0259123 2.83278e-11 2.0276e-14 -2.54444e-14 2.22167 -0.733487 -0.20892 2.88379e-15 1.16475e-18 -1.49089e-16 6.00725e-14 -4.16205e-16 -7.95139e-16 1.04571e-12 3.13682e-13 3.18055e-15 1.20127e-11 -3.13483e-13 -3.18055e-15 2.83314e-11 4.43073e-15 -2.8625e-14 4.89356e-11 6.36111e-15 -4.85035e-14 2.83264e-11 3.97569e-15 -1.27222e-14 -7.73091 5.47488 -0.417314 2.83315e-11 3.47873e-15 -3.49861e-14 -2.90554 0.965183 -0.102902 2.83282e-11 4.57205e-15 -2.70347e-14 -10.2786 0.731801 -0.0259123 2.83411e-11 7.15625e-15 -2.8625e-14 -2.22167 -0.733487 0.20892 -2.03217e-16 0.0 -3.88251e-19 0.0644084 -2.35905 -0.0223811 -0.00798363 -1.27853 -0.0684578 -0.484697 3.63779 0.128967 2.03217e-16 0.0 3.88251e-19 -0.910372 -4.50048 0.076453 0.0020216 2.60027 0.00927483 0.492912 1.9005 -0.0947782
-4.8443 82.7162 6.63935 -3.9694 -5.9274 14.4554 0.606609 -4.81047 -0.436445 -0.146951 0.380233 -0.195094 -3.08149 1.30893 -2.4254 2.78864 1.64337 -4.37553 -0.0 0.0 0.0 -0.0 0.0 0.0 -3.1922e-14 -1.00184e-13 2.60858e-14 22.4376 10.6693 -0.732354 -4.69771 -2.23906 7.22041 0.00857377 2.05416 0.288023 -2.65233e-10 -2.47125e-10 5.66845e-10 -4.54467e-10 -4.32284e-10 9.82332e-10 -2.65227e-10 -2.47124e-10 5.66834e-10 7.73091 5.47488 0.417314 -2.6523e-10 -2.47127e-10 5.66848e-10 2.90554 0.965183 0.102902 -2.65225e-10 -2.47126e-10 5.66843e-10 10.2786 0.731801 0.0259123 -2.65238e-10 -2.47124e-10 5.66848e-10 2.22167 -0.733487 -0.20892 -3.20538e-14 -1.00183e-13 2.58319e-14 -22.064 10.6616 0.8563 4.2533 -1.93922 -6.63602 -0.0127334 -2.50389 0.350686 6.82136e-10 1.13457e-10 -5.10458e-10 1.18053e-09 1.99452e-10 -8.7901e-10 6.82129e-10 1.13457e-10 -5.1044e-10 -7.73091 5.47488 -0.417314 6.82137e-10 1.13457e-10 -5.10459e-10 -2.90554 0.965183 -0.102902 6.82132e-10 1.13457e-10 -5.10455e-10 -10.2786 0.731801 -0.0259123 6.82143e-10 1.13459e-10 -5.10456e-10 -2.22167 -0.733487 0.20892 -2.03217e-16 0.0 -3.88251e-19 0.435604 -8.76009 3.54939 0.00360851 6.04139 0.0570961 -0.68865 0.233368 -3.18474 2.03217e-16 0.0 3.88251e-19 0.237706 -10.1517 -2.61221 -0.0102325 9.42406 -0.116119 0.952223 -2.05586 4.79631
-4.85616 82.7159 6.63617 -4.0244 -5.9115 14.4692 1.75754 -9.89102 -0.894545 -0.139361 0.786616 -0.374256 -6.2257 2.69967 -5.00608 6.01339 3.33432 -9.0377 -0.0 0.0 0.0 -0.0 0.0 0.0 -6.91764e-14 -2.14811e-13 5.47528e-14 46.4756 21.9422 -1.59522 -9.05205 -4.48494 14.8835 -0.00487372 4.22533 0.59371 -6.13578e-10 -5.08139e-10 1.19841e-09 -1.05203e-09 -8.89313e-10 2.07698e-09 -6.13571e-10 -5.08137e-10 1.19839e-09 7.73091 5.47488 0.417314 -6.13571e-10 -5.08143e-10 1.19841e-09 2.90554 0.965183 0.102902 -6.13571e-10 -5.0814e-10 1.19841e-09 10.2786 0.731801 0.0259123 -6.13583e-10 -5.08139e-10 1.19841e-09 2.22167 -0.733487 -0.20892 -6.92382e-14 -2.14811e-13 5.45478e-14 -45.759 21.9249 1.86623 8.26287 -3.9012 -13.6726 0.00727326 -5.15574 0.724374 1.40434e-09 2.1736e-10 -1.09966e-09 2.43058e-09 3.82816e-10 -1.89378e-09 1.40433e-09 2.1736e-10 -1.09964e-09 -7.73091 5.47488 -0.417314 1.40434e-09 2.17361e-10 -1.09966e-09 -2.90554 0.965183 -0.102902 1.40434e-09 2.1736e-10 -1.09966e-09 -10.2786 0.731801 -0.0259123 1.40434e-09 2.17362e-10 -1.09966e-09 -2.22167 -0.733487 0.20892 -2.03217e-16 0.0 -3.88251e-19 1.72372 -15.4311 7.50713 -0.0197558 13.779 0.194759 -1.33182 -3.34354 -6.69682 2.03217e-16 0.0 3.88251e-19 0.853876 -16.0736 -5.59002 0.0106383 16.6376 -0.256118 2.17122 -6.15577 10.0165
-4.84232 82.7139 6.63061 -3.9741 -5.8552 14.493 2.71288 -14.4221 -1.31438 -0.127444 1.15018 -0.53225 -8.91236 3.89862 -7.29126 9.11385 4.81511 -13.1685 -0.0 0.0 0.0 -0.0 0.0 0.0 -1.01926e-13 -3.00553e-13 7.79593e-14 68.2553 31.9851 -2.54576 -12.4364 -6.29139 21.7824 -0.0365396 6.16185 0.868532 -8.52363e-10 -7.41413e-10 1.70059e-09 -1.46126e-09 -1.29692e-09 2.9471e-09 -8.52355e-10 -7.4141e-10 1.70057e-09 7.73091 5.47488 0.417314 -8.52354e-10 -7.41418e-10 1.70059e-09 2.90554 0.965183 0.102902 -8.52357e-10 -7.41415e-10 1.70059e-09 10.2786 0.731801 0.0259123 -8.52369e-10 -7.41413e-10 1.70059e-09 2.22167 -0.733487 -0.20892 -1.01929e-13 -3.00552e-13 7.77939e-14 -67.2926 31.9536 2.97577 11.4372 -5.50616 -19.9928 0.0544237 -7.51053 1.06015 1.98974e-09 3.40361e-10 -1.53132e-09 3.44372e-09 5.98344e-10 -2.63693e-09 1.98974e-09 3.40362e-10 -1.53129e-09 -7.73091 5.47488 -0.417314 1.98975e-09 3.40363e-10 -1.53131e-09 -2.90554 0.965183 -0.102902 1.98974e-09 3.40361e-10 -1.53131e-09 -10.2786 0.731801 -0.0259123 1.98975e-09 3.40364e-10 -1.53131e-09 -2.22167 -0.733487 0.20892 -2.03217e-16 0.0 -3.88251e-19 3.70834 -21.2273 11.3476 -0.0742071 20.6809 0.328379 -2.27701 -6.47783 -9.87522 2.03217e-16 0.0 3.88251e-19 0.844473 -21.273 -8.44555 0.0616499 23.0712 -0.393672 3.89688 -9.66587 14.7837
